<svg width="25" height="29" viewBox="0 0 25 29" fill="none" xmlns="http://www.w3.org/2000/svg">
<path d="M2.55173 9.9585C2.073 9.9585 1.66681 10.1254 1.33292 10.4593C0.999028 10.7932 0.832031 11.1939 0.832031 11.6615V18.8414C0.832031 19.3208 0.998977 19.7266 1.33292 20.0606C1.66681 20.3944 2.073 20.5614 2.55173 20.5614C3.03011 20.5614 3.43384 20.3945 3.76255 20.0606C4.09062 19.7267 4.2551 19.3208 4.2551 18.8414V11.6615C4.2551 11.1938 4.08816 10.7932 3.75421 10.4593C3.42027 10.1254 3.01936 9.9585 2.55173 9.9585Z" fill="#5A77EE"/>
<path d="M16.3764 3.51301L17.562 1.32599C17.6398 1.1812 17.6121 1.07017 17.4787 0.992095C17.3339 0.924774 17.2226 0.958887 17.1448 1.09202L15.9427 3.29653C14.8849 2.82885 13.7661 2.59459 12.5863 2.59459C11.4063 2.59459 10.2874 2.8289 9.23003 3.29653L8.02784 1.09202C7.94972 0.958887 7.83844 0.925076 7.69395 0.992095C7.56021 1.07052 7.53253 1.1812 7.61065 1.32599L8.79626 3.51301C7.59408 4.12609 6.63661 4.97991 5.92421 6.07634C5.21182 7.17337 4.85547 8.37218 4.85547 9.67489H20.3004C20.3004 8.37248 19.944 7.17362 19.2317 6.07634C18.5192 4.97991 17.5673 4.12609 16.3764 3.51301ZM9.52212 6.69408C9.39391 6.82259 9.24078 6.88655 9.06278 6.88655C8.88443 6.88655 8.73441 6.82259 8.61203 6.69408C8.48965 6.56617 8.42845 6.41364 8.42845 6.23504C8.42845 6.05704 8.48965 5.90422 8.61203 5.776C8.73441 5.64809 8.88478 5.58414 9.06278 5.58414C9.24078 5.58414 9.39391 5.64809 9.52212 5.776C9.65003 5.90452 9.71428 6.05704 9.71428 6.23504C9.71393 6.41334 9.64973 6.56617 9.52212 6.69408ZM16.56 6.69408C16.4373 6.82259 16.287 6.88655 16.1093 6.88655C15.9309 6.88655 15.7778 6.82259 15.6498 6.69408C15.5217 6.56617 15.4577 6.41364 15.4577 6.23504C15.4577 6.05704 15.5217 5.90422 15.6498 5.776C15.7778 5.64809 15.9309 5.58414 16.1093 5.58414C16.2873 5.58414 16.4373 5.64809 16.56 5.776C16.6825 5.90452 16.7435 6.05704 16.7435 6.23504C16.7435 6.41334 16.6824 6.56617 16.56 6.69408Z" fill="#5A77EE"/>
<path d="M4.92139 21.3961C4.92139 21.9087 5.09939 22.3425 5.45543 22.6986C5.81178 23.0546 6.24565 23.2326 6.75784 23.2326H7.99353L8.01046 27.0234C8.01046 27.5021 8.17741 27.9086 8.5113 28.2425C8.84519 28.5764 9.24616 28.7434 9.71348 28.7434C10.1919 28.7434 10.5984 28.5764 10.9323 28.2425C11.2662 27.9086 11.4332 27.5021 11.4332 27.0234V23.233H13.7374V27.0234C13.7374 27.5021 13.9043 27.9086 14.2382 28.2425C14.5721 28.5764 14.9782 28.7434 15.457 28.7434C15.9354 28.7434 16.3419 28.5764 16.6758 28.2425C17.0098 27.9086 17.1767 27.5021 17.1767 27.0234V23.233H18.429C18.9299 23.233 19.3582 23.0549 19.7149 22.6989C20.0709 22.3428 20.249 21.909 20.249 21.3965V10.2754H4.92139V21.3961Z" fill="#5A77EE"/>
<path d="M22.621 9.9585C22.1534 9.9585 21.7527 10.123 21.4188 10.451C21.0849 10.7797 20.918 11.1834 20.918 11.6615V18.8414C20.918 19.3208 21.0849 19.7266 21.4188 20.0606C21.7527 20.3945 22.1537 20.5614 22.621 20.5614C23.0995 20.5614 23.5059 20.3945 23.8398 20.0606C24.1738 19.7266 24.3407 19.3208 24.3407 18.8414V11.6615C24.3407 11.1834 24.1738 10.7797 23.8398 10.451C23.5059 10.123 23.0995 9.9585 22.621 9.9585Z" fill="#5A77EE"/>
</svg>
