<svg width="23" height="24" viewBox="0 0 23 24" fill="none" xmlns="http://www.w3.org/2000/svg">
<path d="M20.3443 18.3881C20.0129 19.1872 19.6205 19.9227 19.1659 20.599C18.5463 21.5208 18.0389 22.159 17.6479 22.5133C17.0418 23.095 16.3924 23.3928 15.697 23.4098C15.1978 23.4098 14.5957 23.2615 13.8949 22.9608C13.1917 22.6615 12.5456 22.5133 11.9548 22.5133C11.3351 22.5133 10.6705 22.6615 9.9597 22.9608C9.24779 23.2615 8.67427 23.4182 8.23579 23.4338C7.56892 23.4634 6.90422 23.1571 6.24074 22.5133C5.81727 22.1279 5.28759 21.4672 4.65306 20.5312C3.97226 19.5317 3.41255 18.3726 2.97406 17.0512C2.50445 15.6239 2.26904 14.2418 2.26904 12.9037C2.26904 11.3709 2.58644 10.049 3.22219 8.94116C3.72183 8.05132 4.38653 7.3494 5.21846 6.8341C6.05038 6.31881 6.94927 6.05622 7.9173 6.03942C8.44698 6.03942 9.14158 6.21038 10.0048 6.54638C10.8655 6.88351 11.4182 7.05448 11.6605 7.05448C11.8416 7.05448 12.4556 6.85457 13.4964 6.45603C14.4807 6.08643 15.3114 5.9334 15.9919 5.99368C17.836 6.14897 19.2214 6.90751 20.1428 8.2741C18.4935 9.31683 17.6777 10.7773 17.6939 12.6509C17.7088 14.1102 18.2162 15.3246 19.2133 16.2888C19.6652 16.7364 20.1698 17.0822 20.7313 17.3279C20.6095 17.6964 20.481 18.0493 20.3443 18.3881ZM16.115 1.02201C16.115 2.16583 15.7146 3.23382 14.9163 4.22234C13.953 5.39749 12.7879 6.07655 11.5244 5.9694C11.5083 5.83217 11.4989 5.68775 11.4989 5.53598C11.4989 4.43791 11.957 3.26276 12.7706 2.30191C13.1767 1.81542 13.6933 1.41091 14.3197 1.08822C14.9447 0.770345 15.536 0.594552 16.092 0.564453C16.1083 0.717361 16.115 0.870284 16.115 1.02199V1.02201Z" fill="#5A77EE"/>
</svg>
