<svg width="7" height="13" viewBox="0 0 7 13" fill="none" xmlns="http://www.w3.org/2000/svg">
<path opacity="0.6" d="M4.72581 12.0332C4.66606 12.0356 4.62783 12.0404 4.58959 12.0404C3.77224 12.0404 2.95728 12.038 2.13993 12.0428C2.02521 12.0428 1.99414 12.0117 1.99414 11.897C1.99653 9.99463 1.99653 8.08987 1.99653 6.18749C1.99653 6.13731 1.99653 6.08712 1.99653 6.02259C1.55201 6.02259 1.11943 6.02259 0.679688 6.02259C0.679688 5.34386 0.679688 4.67707 0.679688 3.99116C0.725096 3.99116 0.768114 3.99116 0.808743 3.99116C1.16723 3.99116 1.52572 3.98877 1.8842 3.99355C1.97502 3.99355 1.99892 3.96726 1.99892 3.87884C1.99414 3.34589 1.99414 2.81055 1.99892 2.27759C2.00131 1.90477 2.06106 1.5415 2.23313 1.20452C2.47929 0.72893 2.86885 0.420631 3.36117 0.229438C3.76268 0.0717034 4.18569 0.0143455 4.6111 0.00717572C5.30417 -0.00238394 5.99725 0.00239589 6.69032 5.97481e-06C6.75485 5.97481e-06 6.80743 -0.00238394 6.80743 0.0884328C6.80504 0.745659 6.80504 1.40289 6.80504 2.06011C6.80504 2.06728 6.80265 2.07445 6.79309 2.10552C6.75246 2.10552 6.70705 2.10552 6.66164 2.10552C6.23146 2.10552 5.80127 2.10313 5.37109 2.10552C5.12254 2.10552 4.92179 2.2059 4.79512 2.42338C4.75688 2.48791 4.73298 2.57155 4.73298 2.64803C4.72581 3.05432 4.73298 3.4606 4.7282 3.86689C4.7282 3.96248 4.75688 3.98877 4.85009 3.98877C5.44757 3.98399 6.04505 3.98638 6.64252 3.98638C6.69032 3.98638 6.73573 3.98638 6.81699 3.98638C6.73334 4.6699 6.65208 5.33908 6.56844 6.01542C5.94706 6.01542 5.34241 6.01542 4.72581 6.01542C4.72581 8.02534 4.72581 10.0233 4.72581 12.0332Z" fill="white"/>
</svg>
