<svg width="13" height="13" viewBox="0 0 13 13" fill="none" xmlns="http://www.w3.org/2000/svg">
<g opacity="0.6">
<path d="M6.97735 8.02793C8.08585 8.02793 8.98448 7.12931 8.98448 6.0208C8.98448 4.91229 8.08585 4.01367 6.97735 4.01367C5.86884 4.01367 4.97021 4.91229 4.97021 6.0208C4.97021 7.12931 5.86884 8.02793 6.97735 8.02793Z" fill="white"/>
<path d="M9.48732 0H4.4695C2.53312 0 0.95752 1.5761 0.95752 3.51298V8.53081C0.95752 10.4672 2.53362 12.0428 4.4705 12.0428H9.48833C11.4247 12.0428 13.0003 10.4667 13.0003 8.5298V3.51198C13.0003 1.5756 11.4242 0 9.48732 0ZM6.97891 9.03209C5.31851 9.03209 3.96822 7.68179 3.96822 6.02139C3.96822 4.36099 5.31851 3.0107 6.97891 3.0107C8.63931 3.0107 9.98961 4.36099 9.98961 6.02139C9.98961 7.68179 8.63931 9.03209 6.97891 9.03209ZM10.4914 3.0107C10.2144 3.0107 9.98961 2.7859 9.98961 2.50891C9.98961 2.23193 10.2144 2.00713 10.4914 2.00713C10.7684 2.00713 10.9932 2.23193 10.9932 2.50891C10.9932 2.7859 10.7684 3.0107 10.4914 3.0107Z" fill="white"/>
</g>
</svg>
