<svg width="16" height="9" viewBox="0 0 16 9" fill="none" xmlns="http://www.w3.org/2000/svg">
<path opacity="0.6" d="M15.1621 0.44798H12.6012C12.4966 0.447979 12.3941 0.474482 12.3044 0.524668C12.2147 0.574854 12.1412 0.646845 12.0918 0.732981C12.0918 0.732981 11.0704 2.49217 10.7423 3.0847C9.85969 4.67867 9.28815 4.17827 9.28815 3.43849V0.887731C9.28815 0.674581 9.19761 0.470162 9.03645 0.319442C8.87529 0.168722 8.65671 0.0840491 8.4288 0.0840491H6.50334C6.24113 0.065816 5.97828 0.110578 5.73977 0.214083C5.50126 0.317588 5.295 0.476401 5.14058 0.675436C5.14058 0.675436 6.1183 0.527593 6.1183 1.75964C6.1183 2.06516 6.13513 2.94404 6.15046 3.68119C6.15335 3.78982 6.12053 3.89667 6.05643 3.9873C5.99233 4.07793 5.90005 4.14798 5.79203 4.188C5.684 4.22803 5.56545 4.23609 5.45238 4.2111C5.3393 4.18611 5.23715 4.12927 5.15971 4.04826C4.3716 3.02313 3.71877 1.91272 3.21543 0.741162C3.1722 0.653522 3.103 0.579318 3.01603 0.527352C2.92907 0.475386 2.82799 0.447839 2.72479 0.44798C2.16942 0.44798 1.05805 0.44798 0.398054 0.44798C0.334053 0.447572 0.270904 0.461702 0.214031 0.489155C0.157157 0.516608 0.10826 0.556563 0.071541 0.605589C0.0348216 0.654614 0.0113774 0.711244 0.00322254 0.770612C-0.00493234 0.82998 0.0024459 0.890313 0.0247234 0.946426C0.731234 2.75884 3.77466 8.45445 7.24842 8.45445H8.71052C8.86372 8.45445 9.01064 8.39753 9.11896 8.29622C9.22729 8.19491 9.28815 8.05751 9.28815 7.91424V7.08856C9.28815 6.98498 9.32055 6.88366 9.38136 6.79709C9.44217 6.71053 9.52874 6.64249 9.63039 6.60136C9.73204 6.56024 9.84434 6.54783 9.95344 6.56566C10.0625 6.58349 10.1637 6.63078 10.2444 6.7017L11.9944 8.23945C12.1516 8.37756 12.3591 8.45444 12.5748 8.45445H14.8729C15.9813 8.45445 15.9813 7.73515 15.377 7.17855C14.9517 6.78684 13.417 5.27401 13.417 5.27401C13.2856 5.14668 13.2072 4.97959 13.196 4.80292C13.1848 4.62626 13.2416 4.45168 13.356 4.31074C13.8521 3.70024 14.6634 2.70089 15.0075 2.27278C15.4779 1.68762 16.3291 0.44798 15.1621 0.44798Z" fill="white"/>
</svg>
