<svg width="16" height="12" viewBox="0 0 16 12" fill="none" xmlns="http://www.w3.org/2000/svg">
<path opacity="0.6" d="M15.4213 2.92852C15.3758 2.44534 15.1531 1.99287 14.7922 1.65052C14.4314 1.30817 13.9554 1.09784 13.4479 1.05643C12.2343 0.960523 10.4354 0.860352 8.21589 0.860352C5.54303 0.860352 3.52541 0.96435 2.22101 1.06187C1.71112 1.10089 1.23216 1.31041 0.868869 1.65338C0.505579 1.99635 0.28138 2.45064 0.235944 2.93589C0.156095 3.73603 0.0869141 4.79277 0.0869141 6.05273C0.0869141 7.28133 0.155522 8.3194 0.234999 9.10959C0.280889 9.59441 0.505277 10.0482 0.868497 10.3906C1.23172 10.7331 1.71038 10.9423 2.21987 10.9811C3.52422 11.0787 5.54222 11.1827 8.21589 11.1827C10.4354 11.1827 12.2343 11.0826 13.4479 10.9866C13.9554 10.9452 14.4314 10.7349 14.7923 10.3926C15.1531 10.0502 15.3759 9.59775 15.4213 9.11457C15.5012 8.31863 15.5705 7.269 15.5705 6.02155C15.5705 4.77409 15.5012 3.72446 15.4213 2.92852ZM6.10688 8.18835V3.85474L10.5956 6.02155L6.10688 8.18835Z" fill="white"/>
</svg>
